<?xml version="1.0" standalone="no"?>
<!DOCTYPE svg PUBLIC "-//W3C//DTD SVG 20010904//EN"
 "http://www.w3.org/TR/2001/REC-SVG-20010904/DTD/svg10.dtd">
<svg version="1.0" xmlns="http://www.w3.org/2000/svg"
 width="1024.000000pt" height="1024.000000pt" viewBox="0 0 1024.000000 1024.000000"
 preserveAspectRatio="xMidYMid meet">

<g transform="translate(0.000000,1024.000000) scale(0.100000,-0.100000)"
fill="#000000" stroke="none">
<path d="M4880 8789 c-238 -23 -563 -122 -770 -235 -281 -154 -537 -391 -704
-652 -100 -157 -201 -379 -245 -542 -33 -119 -61 -304 -67 -445 -14 -282 58
-631 188 -915 45 -97 166 -275 280 -412 222 -266 564 -496 907 -608 382 -125
942 -112 1296 29 166 67 411 207 550 316 96 75 261 242 343 345 114 145 229
355 286 521 84 247 112 447 103 741 -8 292 -59 494 -192 763 -101 204 -191
331 -355 498 -217 223 -407 352 -679 461 -306 122 -615 166 -941 135z m439
-204 c350 -52 620 -169 891 -385 412 -329 650 -828 650 -1365 0 -287 -69 -575
-191 -805 -112 -208 -235 -357 -432 -524 -302 -254 -617 -384 -1015 -418 -407
-34 -807 67 -1137 289 -411 277 -666 647 -766 1113 -20 92 -23 134 -24 350 0
235 1 250 28 365 66 278 161 481 333 710 267 355 683 595 1161 669 120 19 380
20 502 1z"/>
<path d="M5015 8368 c-40 -14 -104 -75 -121 -115 -39 -91 10 -217 97 -253 l29
-12 0 -1282 c0 -704 3 -1325 7 -1378 l6 -98 56 0 56 0 -3 1379 -2 1379 27 10
c37 13 82 59 101 102 65 156 -93 324 -253 268z m130 -133 c29 -28 31 -54 10
-96 -41 -79 -155 -45 -155 47 0 67 95 100 145 49z"/>
<path d="M4375 8224 c-162 -84 -150 -318 20 -374 36 -12 95 -10 126 4 12 5 46
-25 131 -116 l115 -123 8 -258 c4 -143 3 -257 -1 -256 -5 0 -33 28 -62 62 -68
81 -204 220 -374 385 -76 73 -138 139 -138 145 0 7 7 32 16 56 29 86 -21 203
-102 237 -49 20 -123 18 -161 -6 -107 -65 -132 -213 -51 -306 44 -50 81 -66
143 -62 l52 3 138 -130 c76 -71 230 -228 342 -348 l203 -219 0 -169 c0 -96 -4
-169 -9 -169 -5 0 -11 3 -13 8 -3 7 -398 386 -639 612 l-144 135 0 71 c0 65
-3 76 -31 115 -58 80 -160 111 -240 73 -114 -54 -156 -213 -82 -310 62 -81
170 -108 239 -61 l34 23 140 -129 c288 -267 563 -531 649 -625 l88 -97 -1
-572 -2 -571 61 -4 60 -3 0 1209 0 1209 -136 139 c-114 117 -135 143 -129 161
14 49 17 107 5 142 -16 47 -66 104 -107 121 -43 19 -111 17 -148 -2z m134
-129 c52 -51 14 -135 -60 -135 -30 0 -42 6 -58 29 -35 48 -24 98 27 125 32 18
58 12 91 -19z m-425 -236 c35 -28 36 -80 1 -114 -32 -33 -60 -31 -96 4 -31 32
-35 50 -17 84 26 50 69 60 112 26z m-240 -400 c34 -40 33 -74 -3 -110 -50 -50
-115 -33 -142 38 -12 33 -4 57 28 83 39 31 86 26 117 -11z"/>
<path d="M5650 8229 c-104 -44 -159 -164 -114 -251 l16 -32 -141 -139 -141
-139 0 -1215 0 -1215 31 6 c17 3 44 6 60 6 l29 0 0 580 0 581 93 93 c139 140
362 352 557 531 96 88 186 172 199 186 l25 26 48 -25 c45 -23 52 -24 101 -13
87 19 142 84 154 181 5 41 1 59 -22 105 -38 78 -86 109 -169 109 -79 0 -120
-23 -161 -89 -26 -41 -30 -59 -30 -117 l-1 -69 -144 -133 c-80 -73 -245 -230
-368 -349 -123 -119 -237 -226 -253 -238 l-29 -20 0 163 c0 142 2 167 19 193
10 17 163 177 340 357 321 326 321 327 353 317 37 -10 97 3 145 32 83 51 97
213 25 292 -45 50 -160 74 -215 46 -97 -50 -137 -168 -90 -261 13 -27 13 -28
-282 -325 l-295 -298 0 256 0 255 53 55 c29 29 85 85 124 122 l70 68 46 -13
c110 -29 227 66 227 184 0 64 -40 141 -90 174 -46 30 -127 42 -170 23z m123
-140 c34 -37 34 -59 1 -98 -45 -54 -106 -39 -133 32 -14 36 0 72 36 91 35 19
61 12 96 -25z m409 -226 c42 -41 37 -93 -13 -118 -38 -20 -42 -19 -78 11 -38
32 -42 76 -9 111 29 30 66 29 100 -4z m253 -399 c34 -37 33 -78 -4 -115 -45
-45 -97 -36 -127 22 -43 85 67 162 131 93z"/>
<path d="M3615 7071 c-79 -37 -121 -111 -113 -200 10 -102 104 -181 216 -181
69 0 114 22 146 71 24 36 30 39 70 39 40 0 48 -4 92 -53 48 -52 174 -220 174
-231 0 -3 -52 -6 -116 -6 l-116 0 -41 46 c-48 55 -89 74 -154 74 -125 -1 -212
-98 -201 -222 14 -142 180 -225 299 -149 40 25 79 79 79 109 0 16 54 21 211
23 l146 1 96 -99 96 -98 1 -67 0 -67 -132 -3 -132 -3 -50 51 c-83 82 -181 93
-274 30 -65 -45 -84 -84 -80 -173 3 -62 7 -76 34 -109 48 -59 78 -77 139 -82
98 -8 196 51 212 129 l6 29 138 0 139 0 2 -307 3 -308 47 -6 c26 -4 51 -10 57
-13 6 -4 11 163 13 471 l3 478 -106 110 c-58 61 -124 135 -146 165 -23 30 -57
71 -76 92 -19 20 -77 89 -129 155 -130 163 -117 153 -202 153 l-73 0 -11 39
c-34 110 -158 163 -267 112z m147 -121 c25 -26 29 -36 24 -62 -19 -96 -136
-105 -166 -13 -14 41 -2 68 38 89 42 23 71 19 104 -14z m57 -456 c60 -50 28
-144 -48 -144 -41 0 -63 17 -81 64 -14 38 -5 63 33 87 42 25 59 24 96 -7z
m270 -450 c42 -35 43 -84 2 -125 -48 -48 -108 -31 -137 37 -36 85 63 149 135
88z"/>
<path d="M6358 7067 c-45 -27 -69 -58 -77 -101 -7 -31 -7 -31 -79 -34 -62 -2
-73 -6 -83 -25 -7 -12 -44 -56 -84 -97 -40 -41 -104 -114 -143 -163 -132 -163
-157 -191 -253 -292 l-96 -100 -2 -479 c-3 -417 -1 -478 12 -473 8 3 35 9 61
12 l46 7 2 302 3 301 141 3 141 3 6 -28 c22 -110 164 -176 266 -123 131 66
153 239 44 342 -37 35 -73 48 -135 48 -68 0 -116 -25 -147 -77 l-26 -42 -142
-1 -143 0 0 82 0 82 91 88 91 88 174 0 c150 0 174 -2 174 -15 0 -9 9 -34 21
-56 35 -69 155 -109 236 -78 42 15 102 79 113 119 27 98 -18 212 -102 256 -39
20 -122 18 -167 -6 -35 -17 -84 -65 -93 -89 -2 -6 -55 -7 -140 -4 l-137 6 61
71 c34 39 93 104 132 144 65 67 74 72 112 72 39 0 45 -4 78 -49 37 -53 75 -71
146 -71 120 1 216 133 181 249 -38 128 -179 191 -283 128z m133 -97 c32 -18
51 -64 38 -97 -24 -65 -73 -81 -123 -42 -21 17 -26 29 -26 65 0 70 53 105 111
74z m-77 -460 c15 -5 33 -25 42 -44 44 -91 -56 -168 -127 -97 -45 46 -33 118
25 141 28 12 31 12 60 0z m-216 -486 c38 -43 27 -105 -25 -132 -35 -19 -63
-14 -94 17 -40 40 -39 82 1 123 26 25 36 29 63 24 18 -3 42 -17 55 -32z"/>
<path d="M2440 8328 c-67 -36 -103 -94 -108 -172 -4 -67 9 -108 52 -154 49
-55 149 -78 211 -50 25 11 33 5 258 -220 l232 -232 22 63 22 64 -211 210 -211
211 13 32 c23 55 17 115 -16 162 -50 71 -96 101 -162 106 -46 3 -66 -1 -102
-20z m151 -127 c40 -40 39 -81 -2 -115 -44 -37 -90 -35 -123 5 -14 17 -26 42
-26 56 0 36 51 83 90 83 22 0 41 -9 61 -29z"/>
<path d="M7545 8333 c-104 -54 -144 -142 -113 -245 l12 -40 -70 -66 c-38 -37
-136 -131 -217 -210 l-148 -144 21 -54 c13 -30 27 -54 32 -54 5 0 64 55 131
123 192 193 338 319 362 312 47 -14 105 -16 139 -5 110 36 177 181 128 276
-25 47 -77 99 -115 113 -41 16 -127 13 -162 -6z m146 -122 c76 -76 -13 -196
-100 -135 -32 23 -54 79 -41 103 16 30 60 61 87 61 14 0 37 -13 54 -29z"/>
<path d="M2057 7740 c-80 -25 -137 -108 -137 -199 0 -77 45 -152 114 -188 47
-24 146 -21 183 5 17 12 34 22 39 22 4 0 32 -24 63 -52 65 -61 216 -189 237
-201 7 -4 111 -2 231 5 l218 12 1 43 c1 24 7 50 14 58 11 13 -13 15 -207 15
l-219 0 -80 64 c-45 36 -105 90 -135 121 -49 51 -54 60 -55 103 -1 49 -29 116
-60 143 -52 45 -148 68 -207 49z m124 -139 c69 -70 -5 -181 -91 -136 -56 29
-68 95 -24 139 36 35 77 34 115 -3z"/>
<path d="M7970 7741 c-94 -29 -141 -88 -149 -189 l-6 -67 -128 -123 c-100 -97
-132 -122 -145 -116 -9 5 -106 10 -216 12 -177 3 -198 2 -193 -12 4 -9 9 -38
13 -65 l6 -48 217 -6 c242 -5 220 -10 320 77 35 30 97 81 138 112 l74 57 39
-18 c55 -25 147 -16 199 18 48 32 91 114 91 171 -1 131 -137 234 -260 197z
m114 -136 c50 -46 20 -138 -50 -151 -34 -6 -40 -4 -71 29 -41 46 -43 79 -4
118 38 38 87 39 125 4z"/>
<path d="M2001 7014 c-70 -35 -103 -86 -109 -165 -10 -133 76 -228 206 -229
83 0 147 41 186 118 l17 32 67 -6 c37 -4 97 -20 134 -36 85 -36 169 -48 343
-48 l140 0 0 60 0 60 -35 0 c-19 1 -102 5 -185 10 -146 8 -215 22 -215 42 0 5
-4 6 -10 3 -5 -3 -10 -2 -10 4 0 13 -46 21 -147 24 l-83 3 -23 45 c-16 31 -39
54 -77 77 -69 41 -124 43 -199 6z m137 -108 c84 -43 55 -166 -39 -166 -85 0
-126 105 -61 157 31 26 62 29 100 9z"/>
<path d="M7996 7025 c-49 -17 -103 -69 -111 -107 -7 -28 -7 -28 -83 -29 -42 0
-115 -4 -161 -8 -79 -6 -85 -8 -112 -40 -25 -31 -34 -34 -106 -42 -43 -4 -119
-8 -168 -8 l-90 -1 2 -57 1 -58 116 2 c161 3 260 18 315 48 44 25 138 44 217
45 33 0 43 -4 52 -24 18 -39 75 -98 109 -112 97 -41 230 13 274 110 36 79 19
164 -44 230 -60 63 -131 80 -211 51z m92 -106 c66 -23 84 -109 33 -160 -46
-46 -103 -33 -136 31 -23 44 -18 69 19 106 38 38 40 38 84 23z"/>
<path d="M2735 7020 c-103 -9 -139 -21 -154 -49 -10 -17 -8 -20 17 -23 15 -2
26 -7 24 -13 -4 -15 75 -23 226 -24 l132 -1 0 44 c0 24 3 51 6 60 5 14 -5 16
-77 15 -46 -1 -124 -5 -174 -9z"/>
<path d="M7160 7006 c0 -7 3 -34 6 -59 l7 -45 187 -2 188 -1 4 41 c2 25 -1 45
-9 51 -15 13 -170 28 -290 29 -72 0 -93 -3 -93 -14z"/>
<path d="M2390 6415 c-80 -80 -146 -141 -148 -135 -8 23 -68 43 -127 43 -119
0 -192 -65 -210 -185 -9 -58 7 -108 48 -155 88 -100 251 -96 326 7 44 61 55
102 41 146 l-12 37 136 136 136 136 221 -4 c212 -3 222 -2 214 16 -4 10 -10
37 -12 61 l-6 42 -231 0 -231 0 -145 -145z m-207 -245 c32 -36 34 -54 7 -97
-32 -54 -99 -56 -146 -6 -34 36 -31 77 6 115 27 26 36 30 68 25 24 -4 47 -17
65 -37z"/>
<path d="M7145 6499 c-4 -33 -6 -61 -4 -63 2 -1 94 0 204 3 l200 6 110 -100
c61 -55 126 -113 146 -128 35 -26 36 -29 31 -77 -6 -67 18 -129 69 -175 49
-44 77 -55 137 -55 125 1 226 119 208 243 -22 147 -204 237 -306 150 l-29 -24
-43 39 c-24 22 -83 76 -133 120 -49 44 -98 90 -107 101 -17 20 -27 21 -247 21
l-229 0 -7 -61z m954 -308 c41 -38 42 -86 4 -131 -24 -29 -31 -32 -67 -27 -83
11 -115 100 -57 158 39 38 79 38 120 0z"/>
<path d="M3008 6204 c-31 -16 -117 -94 -249 -228 l-202 -205 -25 17 c-18 12
-47 17 -92 17 -56 0 -74 -5 -116 -30 -134 -82 -125 -283 16 -355 108 -55 223
-20 283 85 25 44 27 57 23 116 l-5 66 169 176 c93 97 174 185 180 197 9 17 20
20 71 20 57 0 60 1 54 21 -8 23 -55 129 -58 129 -1 -1 -23 -12 -49 -26z m-507
-543 c20 -20 29 -39 29 -61 0 -43 -47 -90 -90 -90 -22 0 -41 9 -61 29 -61 61
-29 151 54 151 29 0 45 -7 68 -29z"/>
<path d="M7063 6193 c-8 -21 -21 -57 -28 -81 l-13 -42 48 6 48 6 68 -73 c37
-41 127 -134 201 -207 116 -115 132 -135 123 -151 -30 -57 0 -164 60 -214 57
-48 161 -58 230 -22 141 74 147 305 10 375 -50 25 -131 26 -185 1 l-40 -18
-215 217 c-262 265 -277 274 -307 203z m704 -525 c51 -48 10 -158 -59 -158
-43 0 -88 48 -88 93 0 71 96 113 147 65z"/>
<path d="M6780 5659 l-21 -41 25 -33 c14 -18 76 -79 138 -136 134 -123 258
-246 258 -257 0 -5 -39 -6 -87 -4 l-88 5 -97 78 c-53 44 -119 105 -145 136
-87 102 -104 119 -110 105 -2 -7 -20 -31 -39 -53 l-34 -41 39 -47 c38 -45 264
-262 315 -302 20 -16 41 -19 135 -19 l111 0 20 -40 c11 -22 39 -52 62 -67 35
-23 52 -28 107 -28 85 0 134 24 172 83 72 114 34 264 -79 314 -52 23 -145 21
-182 -5 -20 -14 -25 -11 -92 60 -38 41 -93 95 -121 121 -29 26 -91 84 -139
129 -50 48 -96 83 -107 83 -14 0 -27 -13 -41 -41z m660 -476 c44 -56 2 -153
-65 -153 -41 0 -73 24 -83 63 -11 42 2 79 36 100 42 26 87 22 112 -10z"/>
<path d="M3263 5641 c-32 -27 -126 -118 -209 -202 l-150 -154 -35 17 c-21 12
-57 18 -96 18 -54 0 -67 -4 -105 -33 -53 -40 -88 -106 -88 -167 0 -49 35 -134
66 -162 58 -51 171 -63 239 -25 21 12 55 42 73 67 l35 45 112 -4 112 -3 39 47
c73 90 272 310 291 322 12 8 14 15 7 20 -5 4 -20 25 -33 45 -18 30 -26 36 -39
29 -10 -5 -82 -76 -162 -159 -140 -145 -147 -149 -194 -156 -74 -9 -134 -7
-142 5 -8 14 47 71 198 206 65 57 139 131 164 165 l47 60 -16 34 c-23 46 -45
44 -114 -15z m-424 -457 c25 -21 31 -34 31 -64 0 -47 -32 -87 -76 -96 -26 -5
-35 -1 -62 30 -41 47 -43 92 -6 130 34 33 73 34 113 0z"/>
<path d="M3462 5075 l-236 -235 -41 20 c-51 25 -117 25 -170 1 -79 -36 -135
-131 -119 -204 33 -154 181 -221 313 -140 65 40 94 99 87 175 l-6 56 203 194
c111 106 222 210 245 231 l44 38 -34 49 c-18 27 -37 50 -41 50 -5 0 -115 -106
-245 -235z m-304 -342 c35 -38 27 -91 -16 -116 -40 -23 -74 -17 -108 20 -35
38 -29 80 15 110 40 27 75 23 109 -14z"/>
<path d="M6416 5260 c-20 -22 -36 -44 -36 -48 0 -11 133 -138 335 -322 98 -89
159 -151 156 -160 -2 -8 -5 -36 -8 -62 -14 -135 155 -236 283 -170 49 25 68
46 93 102 33 72 21 169 -26 222 -49 56 -179 77 -237 39 l-29 -19 -80 71 c-156
141 -275 253 -337 320 -34 37 -66 67 -70 67 -4 0 -24 -18 -44 -40z m700 -513
c54 -47 23 -139 -50 -145 -29 -3 -42 2 -66 27 -39 38 -38 65 4 107 40 40 74
44 112 11z"/>
<path d="M6175 5105 c-35 -34 -31 -55 20 -105 l45 -44 0 -118 0 -117 93 -75
c50 -42 108 -89 127 -105 l35 -30 -28 -29 c-53 -55 -46 -148 16 -219 66 -75
172 -94 263 -48 55 28 88 71 105 138 22 90 -34 199 -122 236 -47 21 -60 22
-108 14 l-55 -10 -93 86 -93 86 0 100 c0 75 -4 109 -18 135 -18 36 -126 130
-149 130 -8 0 -25 -11 -38 -25z m529 -636 c21 -16 26 -29 26 -63 0 -81 -75
-122 -140 -76 -55 39 -45 99 23 140 41 25 58 25 91 -1z"/>
<path d="M3884 5071 c-31 -27 -63 -60 -70 -73 -8 -14 -13 -59 -14 -115 l0 -93
-84 -82 c-46 -46 -90 -93 -98 -106 -14 -21 -18 -22 -66 -11 -163 38 -304 -134
-233 -286 74 -160 311 -167 382 -10 24 51 24 121 1 167 l-19 36 70 87 c39 48
92 103 119 123 l49 37 -7 81 c-7 92 3 135 48 203 27 41 28 45 13 67 -8 13 -19
24 -24 24 -5 0 -35 -22 -67 -49z m-311 -626 c43 -41 36 -104 -14 -130 -40 -21
-63 -19 -98 11 -24 20 -31 34 -31 62 0 77 85 110 143 57z"/>
<path d="M4065 5002 c-4 -15 -3 -142 0 -283 l8 -255 -41 -12 c-70 -21 -132
-110 -132 -192 0 -45 19 -94 52 -134 85 -103 255 -101 325 3 68 101 49 229
-44 294 l-43 31 0 263 c0 145 -2 263 -4 263 -2 0 -28 11 -59 24 l-55 25 -7
-27z m110 -694 c22 -26 26 -39 21 -66 -8 -50 -32 -72 -78 -72 -30 0 -46 7 -69
29 -40 40 -39 81 2 115 44 37 90 35 124 -6z"/>
<path d="M6001 4997 l-54 -22 7 -256 7 -257 -46 -22 c-78 -38 -117 -128 -95
-219 24 -101 126 -179 222 -168 138 17 216 141 177 282 -14 49 -76 113 -118
121 l-31 7 0 278 c0 154 -3 279 -7 278 -5 -1 -32 -11 -62 -22z m83 -678 c30
-35 33 -67 11 -109 -29 -56 -102 -51 -142 9 -30 44 -29 53 8 96 41 47 86 49
123 4z"/>
<path d="M4810 4672 l0 -123 271 2 271 1 -4 120 -4 120 -267 2 -267 1 0 -123z"/>
<path d="M4672 4333 l3 -98 391 -3 392 -2 6 22 c3 13 6 58 6 101 l0 77 -400 0
-401 0 3 -97z"/>
<path d="M5077 4110 l-418 -5 1 -1183 c0 -1168 1 -1184 21 -1245 53 -159 155
-251 317 -286 71 -15 117 -14 187 4 122 32 229 127 279 248 21 52 21 54 26
1262 3 666 5 1210 5 1210 0 0 -188 -2 -418 -5z m44 -2170 c32 -18 51 -64 38
-97 -16 -44 -39 -63 -74 -63 -71 0 -105 63 -70 130 21 40 64 52 106 30z"/>
</g>
</svg>
